<svg width="15.000000" height="14.000000" viewBox="0 0 15 14" fill="none" xmlns="http://www.w3.org/2000/svg" xmlns:xlink="http://www.w3.org/1999/xlink">
	<desc>
			Created with Pixso.
	</desc>
	<defs/>
	<path id="Vector" d="M14.6 10.57L11.57 8.54C11.18 8.29 10.66 8.37 10.38 8.73L9.5 9.87C9.38 10.02 9.17 10.07 9.01 9.97L8.84 9.88C8.28 9.58 7.59 9.2 6.19 7.8C4.79 6.4 4.41 5.71 4.11 5.15L4.02 4.98C3.93 4.82 3.97 4.61 4.12 4.5L5.25 3.61C5.62 3.33 5.7 2.81 5.45 2.43L3.42 -0.61C3.16 -1 2.64 -1.12 2.24 -0.88L0.97 -0.12C0.57 0.12 0.27 0.5 0.15 0.94C-0.31 2.61 0.04 5.48 4.27 9.72C7.64 13.09 10.15 13.99 11.87 13.99C12.27 14 12.66 13.94 13.05 13.84C13.49 13.72 13.87 13.42 14.1 13.02L14.87 11.76C15.11 11.35 15 10.83 14.6 10.57ZM14.44 11.5L13.68 12.77C13.51 13.06 13.24 13.27 12.91 13.36C11.38 13.78 8.69 13.43 4.62 9.37C0.56 5.3 0.21 2.61 0.63 1.08C0.72 0.76 0.93 0.48 1.22 0.31L2.49 -0.45C2.67 -0.55 2.89 -0.5 3.01 -0.33L4.11 1.32L5.03 2.7C5.14 2.87 5.1 3.09 4.95 3.22L3.81 4.1C3.46 4.37 3.37 4.85 3.58 5.22L3.67 5.39C3.99 5.97 4.39 6.7 5.83 8.15C7.29 9.6 8.01 10 8.6 10.32L8.76 10.41C9.14 10.62 9.62 10.52 9.89 10.18L10.77 9.04C10.9 8.88 11.12 8.85 11.29 8.96L14.32 10.98C14.49 11.1 14.54 11.32 14.44 11.5Z" fill="#999999" fill-opacity="1.000000" fill-rule="nonzero"/>
	<path id="Vector" d="M8.5 1.5C10.84 1.5 12.74 3.4 12.75 5.75C12.75 5.88 12.86 6 13 6C13.13 6 13.25 5.88 13.25 5.75C13.24 3.12 11.12 1 8.5 1C8.36 1 8.25 1.11 8.25 1.25C8.25 1.38 8.36 1.5 8.5 1.5Z" fill="#999999" fill-opacity="1.000000" fill-rule="nonzero"/>
	<path id="Vector" d="M8.5 3C10.01 3 11.24 4.23 11.25 5.75C11.25 5.88 11.36 6 11.5 6C11.63 6 11.75 5.88 11.75 5.75C11.74 3.95 10.29 2.5 8.5 2.5C8.36 2.5 8.25 2.61 8.25 2.75C8.25 2.88 8.36 3 8.5 3Z" fill="#999999" fill-opacity="1.000000" fill-rule="nonzero"/>
	<path id="Vector" d="M8.5 4.5C9.18 4.5 9.74 5.06 9.75 5.75C9.75 5.88 9.86 6 10 6C10.13 6 10.25 5.88 10.25 5.75C10.24 4.78 9.46 4 8.5 4C8.36 4 8.25 4.11 8.25 4.25C8.25 4.38 8.36 4.5 8.5 4.5Z" fill="#999999" fill-opacity="1.000000" fill-rule="nonzero"/>
</svg>
