<svg width="15.000000" height="12.000000" viewBox="0 0 15 12" fill="none" xmlns="http://www.w3.org/2000/svg" xmlns:xlink="http://www.w3.org/1999/xlink">
	<desc>
			Created with Pixso.
	</desc>
	<defs/>
	<path id="Vector" d="M13.16 -0.21L1.83 -0.21C0.82 -0.21 0 0.61 0 1.62L0 9.37C0 10.38 0.82 11.2 1.83 11.2L13.16 11.2C14.17 11.2 15 10.38 15 9.37L15 1.62C15 0.61 14.17 -0.21 13.16 -0.21ZM14.16 9.37C14.16 9.92 13.71 10.36 13.16 10.36L1.83 10.36C1.28 10.36 0.83 9.92 0.83 9.37L0.83 1.62C0.83 1.08 1.28 0.63 1.83 0.63L13.16 0.63C13.71 0.63 14.16 1.08 14.16 1.62L14.16 9.37L14.16 9.37Z" fill="#999999" fill-opacity="1.000000" fill-rule="nonzero"/>
	<path id="Vector" d="M9.46 5.4L13.12 2.11C13.29 1.95 13.31 1.69 13.16 1.52C13 1.35 12.74 1.33 12.56 1.48L7.5 6.03L6.52 5.14C6.51 5.14 6.51 5.14 6.51 5.13C6.49 5.11 6.47 5.09 6.44 5.08L2.42 1.48C2.25 1.33 1.99 1.34 1.83 1.52C1.68 1.69 1.69 1.95 1.87 2.11L5.58 5.43L1.88 8.89C1.71 9.05 1.71 9.31 1.86 9.48C1.95 9.57 2.06 9.61 2.17 9.61C2.27 9.61 2.38 9.58 2.46 9.5L6.21 5.99L7.23 6.9C7.31 6.97 7.41 7.01 7.51 7.01C7.6 7.01 7.71 6.97 7.79 6.9L8.83 5.96L12.56 9.5C12.64 9.58 12.75 9.62 12.85 9.62C12.96 9.62 13.07 9.58 13.16 9.49C13.31 9.32 13.31 9.05 13.14 8.9L9.46 5.4Z" fill="#999999" fill-opacity="1.000000" fill-rule="nonzero"/>
</svg>
