<svg width="110.000000" height="110.000000" viewBox="0 0 110 110" fill="none" xmlns="http://www.w3.org/2000/svg" xmlns:xlink="http://www.w3.org/1999/xlink">
	<desc>
			Created with Pixso.
	</desc>
	<defs>
		<clipPath id="clip1_351">
			<rect id="project" width="40.000000" height="40.000000" transform="translate(35.000000 35.000000)" fill="white" fill-opacity="0"/>
		</clipPath>
	</defs>
	<circle id="Ellipse" cx="55.000000" cy="55.000000" r="54.500000" stroke="#E0E0E0" stroke-opacity="1.000000" stroke-width="1.000000"/>
	<rect id="project" width="40.000000" height="40.000000" transform="translate(35.000000 35.000000)" fill="#FFFFFF" fill-opacity="0"/>
	<g clip-path="url(#clip1_351)">
		<path id="Vector" d="M74.33 35L44.33 35C43.96 35 43.66 35.29 43.66 35.66L43.66 45.66L45 45.66L45 36.33L73.66 36.33L73.66 73C73.67 73.35 73.4 73.64 73.05 73.66C72.99 73.66 72.93 73.66 72.88 73.66C72.76 73.65 72.64 73.65 72.52 73.64C72.51 73.64 72.5 73.64 72.49 73.63C70.32 73.4 68.6 71.68 68.36 69.5C68.36 69.49 68.35 69.48 68.35 69.47C68.33 69.31 68.33 69.15 68.33 69L68.33 67.66C68.33 67.29 68.03 67 67.66 67L45 67L45 55L43.66 55L43.66 67L38.33 67C37.96 67 37.66 67.29 37.66 67.66L37.66 69C37.66 72.31 40.35 74.99 43.66 75L73.06 75C74.14 74.97 75 74.08 75 73L75 35.66C75 35.29 74.7 35 74.33 35ZM43.66 73.66C41.08 73.66 39 71.57 39 69L39 68.33L67 68.33L67 69C67 69.21 67.01 69.43 67.03 69.65C67.04 69.71 67.05 69.77 67.06 69.82C67.08 69.99 67.11 70.15 67.14 70.3C67.15 70.36 67.17 70.41 67.18 70.47C67.22 70.63 67.27 70.79 67.32 70.94C67.34 70.99 67.35 71.03 67.37 71.08C67.43 71.24 67.5 71.4 67.58 71.56C67.59 71.6 67.61 71.63 67.62 71.66C67.71 71.83 67.8 71.99 67.9 72.15C67.91 72.17 67.92 72.2 67.94 72.22C68.05 72.39 68.16 72.55 68.29 72.71L68.31 72.74C68.45 72.92 68.61 73.1 68.78 73.26C68.92 73.41 69.07 73.54 69.22 73.66L43.66 73.66Z" fill="#4985FF" fill-opacity="1.000000" fill-rule="nonzero"/>
		<path id="Vector" d="M57 53.66C57.17 53.66 57.34 53.59 57.47 53.47L60.13 50.8C60.39 50.54 60.39 50.12 60.13 49.86L57.47 47.19C57.34 47.07 57.17 47 57 47L38.33 47C36.49 47 35 48.49 35 50.33C35 52.17 36.49 53.66 38.33 53.66L57 53.66ZM56.82 48.43L58.72 50.33L56.82 52.22L56.35 50.33L56.82 48.43ZM40.33 48.33L55.48 48.33L55.14 49.66L41.66 49.66L41.66 51L55.14 51L55.48 52.33L40.33 52.33L40.33 48.33ZM36.33 50.33C36.33 49.22 37.22 48.33 38.33 48.33L39 48.33L39 52.33L38.33 52.33C37.22 52.33 36.33 51.43 36.33 50.33Z" fill="#4985FF" fill-opacity="1.000000" fill-rule="nonzero"/>
		<path id="Vector" d="M50.33 63.66L70.33 63.66C70.7 63.66 71 63.36 71 63L71 43C71 42.63 70.7 42.33 70.33 42.33C70.15 42.33 69.98 42.4 69.86 42.52L49.86 62.52C49.6 62.78 49.6 63.21 49.86 63.47C49.98 63.59 50.15 63.66 50.33 63.66ZM69.66 44.6L69.66 46.33L68.33 46.33L68.33 47.66L69.66 47.66L69.66 49L68.33 49L68.33 50.33L69.66 50.33L69.66 51.66L68.33 51.66L68.33 53L69.66 53L69.66 54.33L68.33 54.33L68.33 55.66L69.66 55.66L69.66 57L68.33 57L68.33 58.33L69.66 58.33L69.66 59.66L68.33 59.66L68.33 61L69.66 61L69.66 62.33L68.33 62.33L68.33 61L67 61L67 62.33L65.66 62.33L65.66 61L64.33 61L64.33 62.33L63 62.33L63 61L61.66 61L61.66 62.33L60.33 62.33L60.33 61L59 61L59 62.33L57.66 62.33L57.66 61L56.33 61L56.33 62.33L55 62.33L55 61L53.66 61L53.66 62.33L51.94 62.33L69.66 44.6Z" fill="#4985FF" fill-opacity="1.000000" fill-rule="nonzero"/>
		<path id="Vector" d="M59.99 59.66L66.33 59.66C66.7 59.66 67 59.36 67 59L67 52.65C67 52.28 66.7 51.99 66.33 51.99C66.15 51.99 65.98 52.06 65.86 52.18L59.51 58.52C59.25 58.78 59.25 59.21 59.51 59.47C59.64 59.59 59.81 59.66 59.99 59.66ZM65.66 54.26L65.66 58.33L61.6 58.33L65.66 54.26Z" fill="#4985FF" fill-opacity="1.000000" fill-rule="nonzero"/>
		<path id="Vector" d="M52.33 39L65.66 39L65.66 40.33L52.33 40.33L52.33 39Z" fill="#4985FF" fill-opacity="1.000000" fill-rule="evenodd"/>
		<path id="Vector" d="M50.33 41.66L67.66 41.66L67.66 43L50.33 43L50.33 41.66Z" fill="#4985FF" fill-opacity="1.000000" fill-rule="evenodd"/>
		<path id="Vector" d="M46.33 55.66L50.33 55.66L50.33 57L46.33 57L46.33 55.66Z" fill="#4985FF" fill-opacity="1.000000" fill-rule="evenodd"/>
		<path id="Vector" d="M46.33 58.33L49 58.33L49 59.66L46.33 59.66L46.33 58.33Z" fill="#4985FF" fill-opacity="1.000000" fill-rule="evenodd"/>
	</g>
	<circle id="Ellipse" cx="55.000000" cy="55.000000" r="44.500000" stroke="#4985FF" stroke-opacity="1.000000" stroke-width="1.000000"/>
</svg>
