<svg width="60.000000" height="60.000000" viewBox="0 0 60 60" fill="none" xmlns="http://www.w3.org/2000/svg" xmlns:xlink="http://www.w3.org/1999/xlink">
	<desc>
			Created with Pixso.
	</desc>
	<defs>
		<clipPath id="clip6_101">
			<rect id="play-button" width="60.000000" height="60.000000" fill="white" fill-opacity="0"/>
		</clipPath>
	</defs>
	<rect id="play-button" width="60.000000" height="60.000000" fill="#FFFFFF" fill-opacity="0"/>
	<g clip-path="url(#clip6_101)">
		<circle id="Ellipse" cx="30.000000" cy="30.000000" r="30.000000" fill="#4985FF" fill-opacity="1.000000"/>
		<path id="Vector" d="M30 0C13.43 0 0 13.43 0 30C0 46.56 13.43 60 30 60C46.56 60 60 46.56 60 30C60 13.43 46.56 0 30 0ZM40.36 31.59L25.36 40.96C25.06 41.15 24.72 41.25 24.37 41.25C24.06 41.25 23.75 41.17 23.46 41.01C22.86 40.68 22.5 40.05 22.5 39.37L22.5 20.62C22.5 19.94 22.86 19.31 23.46 18.98C24.06 18.65 24.79 18.67 25.36 19.03L40.36 28.4C40.91 28.75 41.25 29.35 41.25 30C41.25 30.64 40.91 31.24 40.36 31.59Z" fill="#FFFFFF" fill-opacity="1.000000" fill-rule="nonzero"/>
	</g>
</svg>
