<svg width="30.000000" height="30.000000" viewBox="0 0 30 30" fill="none" xmlns="http://www.w3.org/2000/svg" xmlns:xlink="http://www.w3.org/1999/xlink">
	<desc>
			Created with Pixso.
	</desc>
	<defs>
		<clipPath id="clip6_8">
			<rect id="web-programming" width="30.000000" height="30.000000" fill="white" fill-opacity="0"/>
		</clipPath>
	</defs>
	<rect id="web-programming" width="30.000000" height="30.000000" fill="#FFFFFF" fill-opacity="0"/>
	<g clip-path="url(#clip6_8)">
		<path id="Vector" d="M11.83 21.02C11.72 21.02 11.6 20.98 11.51 20.9L8.31 18.17C8.2 18.08 8.13 17.94 8.13 17.79C8.13 17.65 8.2 17.51 8.31 17.42L11.51 14.69C11.72 14.51 12.03 14.54 12.21 14.74C12.39 14.95 12.36 15.27 12.15 15.44L9.39 17.79L12.15 20.15C12.36 20.32 12.39 20.64 12.21 20.84C12.11 20.96 11.97 21.02 11.83 21.02Z" fill="#4985FF" fill-opacity="1.000000" fill-rule="nonzero"/>
		<path id="Vector" d="M18.16 21.02C18.02 21.02 17.88 20.96 17.78 20.84C17.6 20.64 17.63 20.32 17.84 20.15L20.6 17.79L17.84 15.44C17.63 15.27 17.6 14.95 17.78 14.74C17.96 14.54 18.27 14.51 18.48 14.69L21.68 17.42C21.79 17.51 21.86 17.65 21.86 17.79C21.86 17.94 21.79 18.08 21.68 18.17L18.48 20.9C18.39 20.98 18.27 21.02 18.16 21.02Z" fill="#4985FF" fill-opacity="1.000000" fill-rule="nonzero"/>
		<path id="Vector" d="M13.86 23.07C13.83 23.07 13.79 23.06 13.76 23.05C13.49 23 13.32 22.74 13.37 22.47L15.37 12.98C15.43 12.72 15.69 12.55 15.96 12.6C16.23 12.66 16.4 12.92 16.34 13.19L14.34 22.67C14.3 22.91 14.09 23.07 13.86 23.07Z" fill="#4985FF" fill-opacity="1.000000" fill-rule="nonzero"/>
		<path id="Vector" d="M26.67 28.23L3.32 28.23C1.49 28.23 0 26.74 0 24.91L0 5.09C0 3.26 1.49 1.76 3.32 1.76L26.67 1.76C28.5 1.76 30 3.26 30 5.09L30 24.91C30 26.74 28.5 28.23 26.67 28.23ZM3.32 2.75C2.03 2.75 0.99 3.8 0.99 5.09L0.99 24.91C0.99 26.19 2.03 27.24 3.32 27.24L26.67 27.24C27.96 27.24 29 26.19 29 24.91L29 5.09C29 3.8 27.96 2.75 26.67 2.75L3.32 2.75Z" fill="#4985FF" fill-opacity="1.000000" fill-rule="nonzero"/>
		<path id="Vector" d="M29.5 9.69L0.49 9.69C0.22 9.69 0 9.47 0 9.2C0 8.93 0.22 8.7 0.49 8.7L29.5 8.7C29.77 8.7 30 8.93 30 9.2C30 9.47 29.77 9.69 29.5 9.69Z" fill="#4985FF" fill-opacity="1.000000" fill-rule="nonzero"/>
		<path id="Vector" d="M8.46 7.32C7.59 7.32 6.89 6.62 6.89 5.76C6.89 4.89 7.59 4.19 8.46 4.19C9.32 4.19 10.02 4.89 10.02 5.76C10.02 6.62 9.32 7.32 8.46 7.32ZM8.46 5.18C8.14 5.18 7.88 5.44 7.88 5.76C7.88 6.08 8.14 6.33 8.46 6.33C8.77 6.33 9.03 6.08 9.03 5.76C9.03 5.44 8.77 5.18 8.46 5.18Z" fill="#4985FF" fill-opacity="1.000000" fill-rule="nonzero"/>
		<path id="Vector" d="M3.64 7.31C2.78 7.31 2.08 6.61 2.08 5.74C2.08 4.88 2.78 4.17 3.64 4.17C4.51 4.17 5.21 4.88 5.21 5.74C5.21 6.61 4.51 7.31 3.64 7.31ZM3.64 5.17C3.33 5.17 3.07 5.42 3.07 5.74C3.07 6.06 3.33 6.32 3.64 6.32C3.96 6.32 4.22 6.06 4.22 5.74C4.22 5.42 3.96 5.17 3.64 5.17Z" fill="#4985FF" fill-opacity="1.000000" fill-rule="nonzero"/>
		<path id="Vector" d="M13.27 7.34C12.41 7.34 11.71 6.64 11.71 5.77C11.71 4.91 12.41 4.2 13.27 4.2C14.14 4.2 14.84 4.91 14.84 5.77C14.84 6.64 14.14 7.34 13.27 7.34ZM13.27 5.2C12.96 5.2 12.7 5.45 12.7 5.77C12.7 6.09 12.96 6.35 13.27 6.35C13.59 6.35 13.85 6.09 13.85 5.77C13.85 5.45 13.59 5.2 13.27 5.2Z" fill="#4985FF" fill-opacity="1.000000" fill-rule="nonzero"/>
	</g>
</svg>
